<svg xmlns="http://www.w3.org/2000/svg" width="500" height="500" viewBox="0 0 500 500"><rect width="100%" height="100%" fill="#DDDDDD"/><path fill="#999999" d="M108.195 245.64v13.34q1.22 1.47 2.65 2.08 1.44.61 3.12.61 1.62 0 2.93-.61 1.3-.61 2.22-1.85.91-1.25 1.4-3.15.5-1.9.5-4.48 0-2.61-.43-4.42-.42-1.81-1.2-2.95-.78-1.13-1.9-1.65-1.11-.52-2.54-.52-2.23 0-3.79.94-1.57.94-2.96 2.66m-.96-7.4.58 2.76q1.83-2.06 4.15-3.34t5.45-1.28q2.44 0 4.45 1.02 2.02 1.01 3.48 2.94 1.47 1.93 2.26 4.76.8 2.83.8 6.48 0 3.34-.9 6.18t-2.57 4.93q-1.66 2.09-4.03 3.26-2.36 1.17-5.29 1.17-2.49 0-4.26-.76-1.77-.77-3.16-2.14v12.18h-7.17v-39.46h4.38q1.4 0 1.83 1.3m26.83-14.64h7.16v43.09h-7.16zm30.04 35.4v-5.01q-3.1.14-5.22.53-2.12.4-3.39 1-1.28.61-1.83 1.43-.55.81-.55 1.76 0 1.89 1.11 2.7 1.12.81 2.92.81 2.2 0 3.81-.79 1.61-.8 3.15-2.43m-15.14-15.63-1.27-2.29q5.13-4.7 12.35-4.7 2.61 0 4.67.86t3.48 2.38 2.16 3.64q.74 2.11.74 4.64v18.79h-3.25q-1.01 0-1.57-.3-.55-.31-.87-1.24l-.63-2.14q-1.13 1.01-2.21 1.78-1.07.77-2.23 1.29t-2.48.8q-1.32.27-2.91.27-1.89 0-3.48-.5-1.6-.51-2.76-1.53-1.16-1.01-1.8-2.52t-.64-3.51q0-1.13.38-2.25.38-1.11 1.23-2.13.86-1.01 2.22-1.91 1.37-.9 3.35-1.57 1.99-.66 4.63-1.08t6.03-.51v-1.74q0-2.99-1.28-4.42-1.27-1.44-3.68-1.44-1.74 0-2.89.41-1.14.4-2.01.91t-1.58.91q-.71.41-1.58.41-.76 0-1.28-.39t-.84-.92m52.06-2.75-1.89 2.61q-.32.41-.62.64-.31.23-.89.23-.55 0-1.07-.33-.52-.34-1.25-.76-.72-.42-1.72-.75-1-.34-2.48-.34-1.89 0-3.31.69-1.42.68-2.36 1.95-.94 1.28-1.41 3.09-.46 1.81-.46 4.1 0 2.38.51 4.24.5 1.85 1.46 3.12.96 1.26 2.32 1.91t3.07.65q1.72 0 2.77-.42 1.06-.42 1.79-.93.72-.5 1.26-.92t1.2-.42q.87 0 1.31.66l2.06 2.61q-1.19 1.39-2.58 2.34-1.4.94-2.89 1.51-1.49.56-3.07.79t-3.15.23q-2.76 0-5.19-1.02-2.44-1.03-4.26-3.01-1.83-1.97-2.89-4.82-1.06-2.86-1.06-6.52 0-3.27.94-6.07.95-2.8 2.77-4.84 1.83-2.05 4.53-3.21 2.69-1.16 6.2-1.16 3.34 0 5.85 1.07 2.51 1.08 4.51 3.08m10.41 7.77h13.51q0-1.39-.39-2.62-.39-1.24-1.17-2.16-.79-.93-1.99-1.47t-2.8-.54q-3.1 0-4.89 1.77-1.78 1.77-2.27 5.02m18.27 4.32h-18.42q.18 2.29.81 3.96.64 1.67 1.69 2.76 1.04 1.08 2.48 1.62 1.43.54 3.17.54t3-.41 2.21-.9q.94-.49 1.65-.9.71-.4 1.38-.4.9 0 1.33.66l2.06 2.61q-1.19 1.39-2.67 2.34-1.48.94-3.09 1.51-1.61.56-3.27.79-1.67.23-3.24.23-3.1 0-5.77-1.02-2.67-1.03-4.64-3.05t-3.1-4.99-1.13-6.89q0-3.04.98-5.72.99-2.69 2.83-4.67 1.84-1.99 4.5-3.15 2.65-1.16 5.99-1.16 2.81 0 5.19.9 2.37.9 4.09 2.63 1.71 1.72 2.68 4.23t.97 5.73q0 1.62-.35 2.19-.35.56-1.33.56m14.21-29.11v16.53q1.74-1.63 3.83-2.64 2.08-1.02 4.9-1.02 2.43 0 4.32.83 1.88.82 3.14 2.32 1.27 1.49 1.92 3.57.65 2.07.65 4.56v18.94h-7.16v-18.94q0-2.72-1.25-4.22-1.25-1.49-3.8-1.49-1.85 0-3.48.84-1.62.84-3.07 2.29v21.52h-7.17V223.6zm38.71 12.87q3.31 0 6.02 1.07 2.71 1.08 4.64 3.05t2.97 4.81q1.05 2.85 1.05 6.35 0 3.54-1.05 6.39-1.04 2.84-2.97 4.84t-4.64 3.07-6.02 1.07q-3.33 0-6.06-1.07-2.72-1.07-4.65-3.07t-2.99-4.84q-1.06-2.85-1.06-6.39 0-3.5 1.06-6.35 1.06-2.84 2.99-4.81t4.65-3.05q2.73-1.07 6.06-1.07m0 25.14q3.71 0 5.5-2.49 1.78-2.49 1.78-7.31 0-4.81-1.78-7.33-1.79-2.53-5.5-2.53-3.77 0-5.58 2.54t-1.81 7.32q0 4.79 1.81 7.3 1.81 2.5 5.58 2.5m20.24-38.01h7.17v43.09h-7.17zm33.01 34.27v-13.34q-1.22-1.48-2.66-2.08-1.43-.61-3.09-.61-1.62 0-2.92.61-1.31.6-2.24 1.84-.93 1.23-1.42 3.13t-.49 4.48q0 2.61.42 4.42.42 1.82 1.2 2.96.79 1.15 1.92 1.65 1.13.51 2.52.51 2.23 0 3.8-.93 1.56-.93 2.96-2.64m0-34.27h7.16v43.09h-4.38q-1.42 0-1.8-1.31l-.61-2.87q-1.79 2.06-4.13 3.34-2.33 1.27-5.44 1.27-2.43 0-4.46-1.01t-3.5-2.94q-1.46-1.93-2.26-4.77-.8-2.85-.8-6.5 0-3.31.9-6.15t2.58-4.93q1.69-2.09 4.03-3.26 2.35-1.18 5.28-1.18 2.5 0 4.27.79 1.76.78 3.16 2.11zm19.89 24.79h13.51q0-1.39-.39-2.62-.39-1.24-1.17-2.16-.78-.93-1.99-1.47-1.2-.54-2.8-.54-3.1 0-4.88 1.77-1.79 1.77-2.28 5.02m18.27 4.32h-18.41q.17 2.29.81 3.96t1.68 2.76q1.04 1.08 2.48 1.62 1.43.54 3.17.54t3.01-.41q1.26-.41 2.2-.9t1.65-.9q.71-.4 1.38-.4.9 0 1.33.66l2.06 2.61q-1.19 1.39-2.66 2.34-1.48.94-3.09 1.51-1.61.56-3.28.79t-3.23.23q-3.11 0-5.77-1.02-2.67-1.03-4.64-3.05-1.98-2.02-3.11-4.99t-1.13-6.89q0-3.04.99-5.72.98-2.69 2.83-4.67 1.84-1.99 4.49-3.15t5.99-1.16q2.81 0 5.19.9t4.09 2.63q1.71 1.72 2.68 4.23t.97 5.73q0 1.62-.35 2.19-.34.56-1.33.56m13.37-13.98.43 3.37q1.4-2.67 3.31-4.19 1.91-1.53 4.52-1.53 2.06 0 3.31.9l-.46 5.37q-.15.52-.42.74-.28.22-.74.22-.44 0-1.29-.15-.86-.14-1.67-.14-1.19 0-2.12.34-.93.35-1.67 1-.74.66-1.3 1.58-.57.93-1.06 2.12v18.33h-7.16v-29.75h4.2q1.1 0 1.54.39.43.39.58 1.4"/></svg>